# xmcd CD database file
#
# Track frame offsets:
#	150
#	15335
#	34782
#	51062
#	64737
#	84942
#	100510
#	119955
#	138320
#	155815
#	174125
#	187432
#	205822
#	222660
#	241087
#	258100
#	275722
#	292290
#	308887
#	325052
#
# Disc length: 4558 seconds
#
# Revision: 0
# Processed by: cddbd v1.5.2PL0 Copyright (c) Steve Scherf et al.
# Submitted via: CDex 1.51
#
DISCID=2a11cc14
DTITLE=Herb Geller and Brian Kellock - Hollywood Portraits
DYEAR=2000
DGENRE=Jazz
TTITLE0=Carole Lombard
TTITLE1=Marlene Dietrich
TTITLE2=Rita Hayworth
TTITLE3=Ginger Rogers
TTITLE4=Audrey Hepburn
TTITLE5=Claudette Colbert
TTITLE6=Joan Crawford
TTITLE7=Mae West
TTITLE8=Judy Garland
TTITLE9=Bette Davis
TTITLE10=Judy Holliday
TTITLE11=Gloria Swanson
TTITLE12=Grace Kelly
TTITLE13=Elinor Powell
TTITLE14=Marilyn Monroe
TTITLE15=Ingrid Bergman
TTITLE16=Betty Grable
TTITLE17=Vivien Leigh
TTITLE18=Greta Garbo
TTITLE19=Lana Turner
EXTD=YEAR: 2000
EXTT0=
EXTT1=
EXTT2=
EXTT3=
EXTT4=
EXTT5=
EXTT6=
EXTT7=
EXTT8=
EXTT9=
EXTT10=
EXTT11=
EXTT12=
EXTT13=
EXTT14=
EXTT15=
EXTT16=
EXTT17=
EXTT18=
EXTT19=
PLAYORDER=
